<svg xmlns="http://www.w3.org/2000/svg" width="380" height="119" viewBox="0 0 380 119">
  <g fill="none" fill-rule="evenodd" transform="translate(-17 -10)">
    <g transform="translate(17 4)">
      <g font-family="Roboto-Regular, Roboto" transform="translate(32)">
        <text fill="#BDC3C6" font-size="13" letter-spacing=".406">
          <tspan x="0" y="12">Inici › Configuració › Estructura › Menús › Navegació </tspan> <tspan x="0" y="36">principal </tspan>
        </text>
        <text fill="#303233" font-size="48">
          <tspan x="0" y="129">Últimes notícies</tspan>
        </text>
      </g>
      <path fill="#BDC7CE" d="M3.10876133,63.6646526 L6.33534743,66.8912387 C6.48036254,67.0362538 6.6978852,67.0362538 6.8429003,66.8912387 L14.8912387,58.8066465 C15.0362538,58.6616314 15.0362538,58.4441088 14.8912387,58.2990937 L11.7009063,55.1087613 C11.5558912,54.9637462 11.3383686,54.9637462 11.1933535,55.1087613 L3.10876133,63.1933535 C2.96374622,63.3383686 2.96374622,63.5558912 3.10876133,63.6646526 L3.10876133,63.6646526 Z M13.1056338,53.3028169 C12.9647887,53.443662 12.9647887,53.6549296 13.1056338,53.7957746 L16.2042254,56.8943662 C16.3450704,57.0352113 16.556338,57.0352113 16.6971831,56.8943662 L17.5774648,56.0140845 C18.1408451,55.4859155 18.1408451,54.6408451 17.5774648,54.0774648 L15.9225352,52.4225352 C15.3591549,51.8591549 14.4788732,51.8591549 13.915493,52.4225352 L13.1056338,53.3028169 L13.1056338,53.3028169 Z M0.0100966425,69.3785278 C-0.0618298923,69.7381605 0.261839515,70.0618299 0.621472189,69.9899034 L4.54146834,69.0548584 C4.68532141,69.0188951 4.79321121,68.9469686 4.86513775,68.8750421 L4.93706428,68.8031155 C5.00899082,68.731189 5.04495408,68.4794461 4.90110101,68.3355931 L1.66440694,65.098899 C1.52055388,64.9550459 1.268811,64.9910092 1.19688447,65.0629357 L1.12495793,65.1348623 C1.01706813,65.2427521 0.981104863,65.3506419 0.945141596,65.4585317 L0.0100966425,69.3785278 L0.0100966425,69.3785278 Z"/>
      <text fill="#9B9FA2" font-family="Roboto-Regular, Roboto" font-size="16" letter-spacing=".5">
        <tspan x="31" y="65">Edita</tspan>
      </text>
    </g>
    <rect width="645" height="179"/>
  </g>
</svg>
