<svg xmlns="http://www.w3.org/2000/svg" width="107" height="12" viewBox="0 0 107 12">
  <g fill="#BDC7CE" fill-rule="evenodd" transform="translate(0 -2)">
    <text font-family="Roboto-Bold, Roboto" font-size="14" font-weight="bold" letter-spacing=".438" opacity=".8">
      <tspan x="25" y="13">Torna al lloc</tspan>
    </text>
    <path fill-opacity=".8" d="M14.5620438,7.05511811 L4.17622523,7.05511811 C3.89468196,7.05511811 3.76955162,6.70866142 3.95724713,6.51968504 L6.96037539,3.49606299 C7.14807091,3.30708661 7.14807091,3.02362205 6.96037539,2.83464567 L6.2721585,2.14173228 C6.08446298,1.95275591 5.80291971,1.95275591 5.61522419,2.14173228 L0.140771637,7.68503937 C-0.046923879,7.87401575 -0.046923879,8.15748031 0.140771637,8.34645669 L5.61522419,13.8582677 C5.80291971,14.0472441 6.08446298,14.0472441 6.2721585,13.8582677 L6.92909281,13.1968504 C7.11678832,13.007874 7.11678832,12.7244094 6.92909281,12.5354331 L3.92596455,9.51181102 C3.73826903,9.29133858 3.86339937,8.94488189 4.14494265,8.94488189 L14.5307612,8.94488189 C14.7810219,8.94488189 15,8.75590551 15,8.50393701 L15,7.55905512 C15,7.30708661 14.8123045,7.05511811 14.5620438,7.05511811 L14.5620438,7.05511811 Z"/>
  </g>
</svg>
